<mxfile host="app.diagrams.net" modified="2023-04-28T11:03:51.362Z" agent="Mozilla/5.0 (Windows NT 10.0; Win64; x64; rv:109.0) Gecko/20100101 Firefox/112.0" version="21.2.3" etag="tg0Nbk1v1NGfn9IqvwAf" type="github">
  <diagram name="Page-1" id="6t6DQ0OUldDoNnTvGt4f">
    <mxGraphModel>
      <root>
        <mxCell id="0" />
        <mxCell id="1" parent="0" />
      </root>
    </mxGraphModel>
  </diagram>
</mxfile>
